<?xml version="1.0" encoding="UTF-8"?>
<svg id="Layer_2" xmlns="http://www.w3.org/2000/svg" viewBox="0 0 901.9 845.86">
  <defs>
    <style>
      .cls-1 {
        opacity: .6;
      }

      .cls-2 {
        stroke-linecap: round;
      }

      .cls-2, .cls-3, .cls-4 {
        fill: none;
        stroke: #f1f2f2;
        stroke-miterlimit: 10;
        stroke-width: .75px;
      }

      .cls-5 {
        opacity: .3;
      }

      .cls-6 {
        fill: #fff;
      }

      .cls-7 {
        opacity: .4;
      }

      .cls-4 {
        stroke-linecap: square;
      }

      .cls-8 {
        fill: #f1f2f2;
      }

      .cls-9 {
        fill: #bcbec0;
      }
    </style>
  </defs>
  <g id="chris_new">
    <g class="cls-5">
      <g id="c">
        <path class="cls-8" d="M139.67,494.31h67.6c-12.99,43.62-53.4,75.44-101.25,75.44-58.35,0-105.65-47.3-105.65-105.65s47.3-105.65,105.65-105.65c47.84,0,88.26,31.81,101.25,75.44h-67.6c-8.28-9.22-20.29-15.02-33.65-15.02-24.98,0-45.23,20.25-45.23,45.23s20.25,45.23,45.23,45.23c13.36,0,25.37-5.8,33.65-15.02Z"/>
      </g>
      <g id="h">
        <path class="cls-9" d="M418.56,464.1v105.65h-60.42v-105.65c0-24.98-20.25-45.23-45.23-45.23s-45.23,20.25-45.23,45.23v105.65h-60.42v-270.3h60.42v69.3c13.74-6.6,29.08-10.3,45.23-10.3,57.96,0,105.65,47.7,105.65,105.65Z"/>
      </g>
      <g id="r">
        <path class="cls-8" d="M629.83,464.1h-60.42c0-24.98-20.25-45.23-45.23-45.23s-45.22,20.25-45.22,45.23v105.65h-60.42v-211.29h60.42v10.3c13.74-6.6,29.07-10.3,45.22-10.3,57.96,0,105.65,47.7,105.65,105.65Z"/>
      </g>
      <g id="i">
        <rect class="cls-9" x="554.4" y="433.89" width="211.28" height="60.42" transform="translate(1124.14 -195.94) rotate(90)"/>
        <circle class="cls-9" cx="659.34" cy="328.95" r="29.51"/>
      </g>
      <g id="s">
        <path class="cls-8" d="M901.53,464.1c0,58.35-47.3,105.65-105.65,105.65-46.47,0-85.94-30.01-100.07-71.72h70.16c7.97,7.04,18.45,11.31,29.91,11.31,16.74,0,31.36-9.09,39.17-22.61h-142.37c-1.59-7.28-2.43-14.85-2.43-22.61,0-58.35,47.3-105.65,105.63-105.65,46.48,0,85.95,30.01,100.08,71.72h-70.16c-7.97-7.04-18.45-11.31-29.92-11.31-16.73,0-31.35,9.09-39.16,22.61h142.37c1.59,7.28,2.43,14.85,2.43,22.61Z"/>
      </g>
    </g>
    <g class="cls-5">
      <g id="c-2" data-name="c">
        <circle class="cls-3" cx="106.02" cy="464.1" r="105.64"/>
        <circle class="cls-3" cx="106.02" cy="463.53" r="45.23"/>
      </g>
      <g id="h-2" data-name="h">
        <rect class="cls-3" x="102.33" y="404.39" width="270.29" height="60.42" transform="translate(672.07 197.11) rotate(90)"/>
        <rect class="cls-3" x="335.52" y="486.71" width="105.64" height="60.42" transform="translate(905.26 128.57) rotate(90)"/>
        <circle class="cls-3" cx="312.91" cy="464.1" r="45.23"/>
      </g>
      <g id="r-2" data-name="r">
        <rect class="cls-3" x="343.12" y="433.89" width="211.28" height="60.42" transform="translate(912.86 15.34) rotate(90)"/>
        <circle class="cls-3" cx="524.2" cy="464.1" r="45.23"/>
      </g>
      <g id="i-2" data-name="i">
        <rect class="cls-3" x="554.4" y="433.89" width="211.28" height="60.42" transform="translate(1124.14 -195.94) rotate(90)"/>
        <circle class="cls-3" cx="659.34" cy="328.95" r="29.51"/>
      </g>
      <g id="s-2" data-name="s">
        <circle class="cls-3" cx="795.89" cy="464.1" r="105.64"/>
        <circle class="cls-3" cx="795.89" cy="464.1" r="45.23"/>
      </g>
      <g id="s-3" data-name="s">
        <circle class="cls-3" cx="524.19" cy="464.1" r="105.64"/>
      </g>
      <g id="s-4" data-name="s">
        <circle class="cls-3" cx="312.91" cy="464.1" r="105.64"/>
      </g>
    </g>
    <g class="cls-7">
      <line class="cls-4" x1="901.53" y1="299.45" x2=".38" y2="299.45"/>
      <line class="cls-4" x1="901.53" y1="464.1" x2=".38" y2="464.1"/>
      <line class="cls-4" x1="901.53" y1="358.46" x2=".38" y2="358.46"/>
      <line class="cls-4" x1="901.53" y1="380.53" x2=".38" y2="380.53"/>
      <line class="cls-4" x1="901.53" y1="430.18" x2=".38" y2="430.18"/>
      <line class="cls-4" x1="901.53" y1="441.49" x2=".38" y2="441.49"/>
      <line class="cls-4" x1="901.53" y1="498.02" x2=".38" y2="498.02"/>
      <line class="cls-4" x1="901.53" y1="486.45" x2=".38" y2="486.45"/>
      <line class="cls-4" x1="901.53" y1="494.31" x2=".38" y2="494.31"/>
      <line class="cls-4" x1="901.53" y1="433.32" x2=".38" y2="433.32"/>
      <line class="cls-4" x1="901.53" y1="569.74" x2=".38" y2="569.74"/>
      <line class="cls-4" x1=".38" y1="569.74" x2=".38" y2="299.45"/>
      <line class="cls-4" x1="901.53" y1="569.74" x2="901.53" y2="299.45"/>
    </g>
    <g class="cls-7">
      <line class="cls-2" x1="418.56" y1="841.11" x2="418.56" y2="4.75"/>
      <line class="cls-2" x1="358.14" y1="780.69" x2="358.14" y2="65.17"/>
      <line class="cls-2" x1="267.69" y1="690.24" x2="267.69" y2="155.62"/>
      <line class="cls-2" x1="569.42" y1="755.04" x2="569.42" y2="90.83"/>
      <line class="cls-2" x1="151.24" y1="573.8" x2="151.24" y2="272.07"/>
      <line class="cls-2" x1="60.79" y1="569.74" x2="60.79" y2="299.45"/>
      <line class="cls-2" x1="478.97" y1="845.49" x2="478.97" y2=".38"/>
      <line class="cls-2" x1="750.66" y1="573.8" x2="750.66" y2="272.07"/>
      <line class="cls-2" x1="841.11" y1="569.74" x2="841.11" y2="299.45"/>
      <line class="cls-2" x1="207.27" y1="629.83" x2="207.27" y2="216.04"/>
      <line class="cls-2" x1="629.83" y1="694.62" x2="629.83" y2="151.24"/>
      <line class="cls-2" x1="690.25" y1="634.21" x2="690.25" y2="211.65"/>
    </g>
    <g class="cls-1">
      <polyline class="cls-2" points="267.94 299.45 271.01 296.37 450.95 116.43 633.96 299.45"/>
      <polyline class="cls-2" points="610.64 569.74 450.95 729.43 291.26 569.74"/>
    </g>
    <g class="cls-1">
      <circle class="cls-3" cx="530.41" cy="269.94" r="29.51"/>
      <circle class="cls-3" cx="511.59" cy="599.25" r="29.51"/>
      <path class="cls-3" d="M364.07,642.55c5.22-8.29,14.46-13.79,24.98-13.79,16.3,0,29.51,13.21,29.51,29.51,0,10.52-5.51,19.76-13.79,24.98"/>
      <circle class="cls-3" cx="448.76" cy="210.93" r="29.51"/>
      <circle class="cls-3" cx="328.63" cy="328.95" r="29.51"/>
    </g>
    <g class="cls-7">
      <line class="cls-2" x1="574.95" y1="240.43" x2="326.95" y2="240.43"/>
      <line class="cls-2" x1="551.63" y1="628.76" x2="350.28" y2="628.76"/>
      <line class="cls-2" x1="492.61" y1="687.77" x2="409.29" y2="687.77"/>
      <line class="cls-2" x1="515.94" y1="181.42" x2="385.96" y2="181.42"/>
    </g>
    <g id="gfx" class="cls-7">
      <path id="x" class="cls-6" d="M886.48,583.93l-3.42,3.41-.48.48-3.03,3.03-11.15,11.15-11.15-11.15-3.04-3.04-.47-.47-3.41-3.41h-15.06v15.05l3.41,3.41,4.03,4.03,3.55,3.55,7.09,7.09-7.01,7.01-2.46,2.46-1.16,1.16-4.03,4.03-3.41,3.41v15.05h15.05l3.41-3.41.48-.48,14.18-14.18,14.18,14.18,3.89,3.89h15.05v-15.05l-3.41-3.41-4.03-4.03-1.16-1.16-2.46-2.46-7-7.01,7.09-7.09,3.55-3.55,4.02-4.02,3.41-3.41v-15.05h-15.05Z"/>
      <path id="f" class="cls-9" d="M835.28,583.92v18.94h-13.81c-.12,0-.24,0-.37,0s-.24,0-.37,0h-13.81v7.09h21.4v16.56h-21.4v23.65h-18.94v-66.25h47.3Z"/>
      <path id="g" class="cls-6" d="M787.98,617.05c0,2.4-.26,4.75-.75,7.01-.18.83-.39,1.66-.63,2.46-.11.39-.24.78-.37,1.16-2.89,8.53-9.15,15.49-17.2,19.3-4.3,2.04-9.11,3.18-14.18,3.18s-9.88-1.14-14.18-3.18c-8.05-3.82-14.31-10.78-17.2-19.3-.13-.39-.25-.77-.37-1.16-.24-.81-.45-1.63-.63-2.46-.49-2.26-.75-4.6-.75-7.01s.26-4.81.76-7.09c.19-.87.41-1.72.67-2.56.1-.33.2-.66.31-.98,2.11-6.22,6.02-11.62,11.11-15.56,1.88-1.45,3.92-2.71,6.09-3.74,4.3-2.04,9.11-3.18,14.18-3.18s9.88,1.14,14.18,3.18c2.17,1.03,4.21,2.29,6.09,3.74,5.09,3.94,9,9.34,11.11,15.56h-22.01c-2.5-2.21-5.78-3.54-9.37-3.54s-6.88,1.34-9.37,3.54c-.35.31-.69.64-1.01.98-.72.78-1.36,1.64-1.9,2.56-1.21,2.09-1.9,4.51-1.9,7.09s.67,4.94,1.85,7.01c.5.89,1.1,1.71,1.78,2.46.37.41.76.8,1.18,1.16,2.5,2.21,5.78,3.55,9.38,3.55s6.88-1.34,9.38-3.55c.41-.36.81-.75,1.17-1.16.68-.75,1.27-1.58,1.78-2.46h-13.97v-14.1h34c.5,2.28.76,4.66.76,7.09Z"/>
    </g>
  </g>
</svg>