<?xml version="1.0" encoding="UTF-8"?>
<svg id="Layer_2" xmlns="http://www.w3.org/2000/svg" viewBox="0 0 901.9 271.05">
  <defs>
    <style>
      .cls-1, .cls-2 {
        fill: none;
        stroke: #f1f2f2;
        stroke-miterlimit: 10;
        stroke-width: .75px;
      }

      .cls-3 {
        opacity: .3;
      }

      .cls-2 {
        stroke-linecap: square;
      }

      .cls-4 {
        fill: #f1f2f2;
      }

      .cls-5 {
        fill: #bcbec0;
      }
    </style>
  </defs>
  <g id="Layer_7">
    <g class="cls-3">
      <g id="c">
        <path class="cls-4" d="M139.67,195.24h67.6c-12.99,43.62-53.4,75.44-101.25,75.44C47.67,270.67.38,223.38.38,165.03S47.67,59.38,106.02,59.38c47.84,0,88.26,31.81,101.25,75.44h-67.6c-8.28-9.22-20.29-15.02-33.65-15.02-24.98,0-45.23,20.25-45.23,45.23s20.25,45.23,45.23,45.23c13.36,0,25.37-5.8,33.65-15.02Z"/>
      </g>
      <g id="h">
        <path class="cls-5" d="M418.56,165.03v105.65h-60.42v-105.65c0-24.98-20.25-45.23-45.23-45.23s-45.23,20.25-45.23,45.23v105.65h-60.42V.38h60.42v69.3c13.74-6.6,29.08-10.3,45.23-10.3,57.96,0,105.65,47.7,105.65,105.65Z"/>
      </g>
      <g id="r">
        <path class="cls-4" d="M629.83,165.03h-60.42c0-24.98-20.25-45.23-45.23-45.23s-45.22,20.25-45.22,45.23v105.65h-60.42V59.38h60.42v10.3c13.74-6.6,29.07-10.3,45.22-10.3,57.96,0,105.65,47.7,105.65,105.65Z"/>
      </g>
      <g id="i">
        <rect class="cls-5" x="554.4" y="134.82" width="211.28" height="60.42" transform="translate(825.07 -495.01) rotate(90)"/>
        <circle class="cls-5" cx="659.34" cy="29.88" r="29.51"/>
      </g>
      <g id="s">
        <path class="cls-4" d="M901.53,165.03c0,58.35-47.3,105.65-105.65,105.65-46.47,0-85.94-30.01-100.07-71.72h70.16c7.97,7.04,18.45,11.31,29.91,11.31,16.74,0,31.36-9.09,39.17-22.61h-142.37c-1.59-7.28-2.43-14.85-2.43-22.61,0-58.35,47.3-105.65,105.63-105.65,46.48,0,85.95,30.01,100.08,71.72h-70.16c-7.97-7.04-18.45-11.31-29.92-11.31-16.73,0-31.35,9.09-39.16,22.61h142.37c1.59,7.28,2.43,14.85,2.43,22.61Z"/>
      </g>
    </g>
    <g class="cls-3">
      <g id="c-2" data-name="c">
        <circle class="cls-1" cx="106.02" cy="165.03" r="105.64"/>
        <circle class="cls-1" cx="106.02" cy="164.46" r="45.23"/>
      </g>
      <g id="h-2" data-name="h">
        <rect class="cls-1" x="102.33" y="105.32" width="270.29" height="60.42" transform="translate(373 -101.96) rotate(90)"/>
        <rect class="cls-1" x="335.52" y="187.64" width="105.64" height="60.42" transform="translate(606.19 -170.5) rotate(90)"/>
        <circle class="cls-1" cx="312.91" cy="165.03" r="45.23"/>
      </g>
      <g id="r-2" data-name="r">
        <rect class="cls-1" x="343.12" y="134.82" width="211.28" height="60.42" transform="translate(613.79 -283.73) rotate(90)"/>
        <circle class="cls-1" cx="524.2" cy="165.03" r="45.23"/>
      </g>
      <g id="i-2" data-name="i">
        <rect class="cls-1" x="554.4" y="134.82" width="211.28" height="60.42" transform="translate(825.07 -495.01) rotate(90)"/>
        <circle class="cls-1" cx="659.34" cy="29.88" r="29.51"/>
      </g>
      <g id="s-2" data-name="s">
        <circle class="cls-1" cx="795.89" cy="165.03" r="105.64"/>
        <circle class="cls-1" cx="795.89" cy="165.03" r="45.23"/>
      </g>
      <g id="s-3" data-name="s">
        <circle class="cls-1" cx="524.19" cy="165.03" r="105.64"/>
      </g>
      <g id="s-4" data-name="s">
        <circle class="cls-1" cx="312.91" cy="165.03" r="105.64"/>
      </g>
    </g>
    <g class="cls-3">
      <line class="cls-2" x1="901.53" y1=".38" x2=".38" y2=".38"/>
      <line class="cls-2" x1="901.53" y1="165.03" x2=".38" y2="165.03"/>
      <line class="cls-2" x1="901.53" y1="59.39" x2=".38" y2="59.39"/>
      <line class="cls-2" x1="901.53" y1="81.46" x2=".38" y2="81.46"/>
      <line class="cls-2" x1="901.53" y1="131.11" x2=".38" y2="131.11"/>
      <line class="cls-2" x1="901.53" y1="142.42" x2=".38" y2="142.42"/>
      <line class="cls-2" x1="901.53" y1="198.95" x2=".38" y2="198.95"/>
      <line class="cls-2" x1="901.53" y1="187.38" x2=".38" y2="187.38"/>
      <line class="cls-2" x1="901.53" y1="195.24" x2=".38" y2="195.24"/>
      <line class="cls-2" x1="901.53" y1="134.25" x2=".38" y2="134.25"/>
      <line class="cls-2" x1="901.53" y1="270.67" x2=".38" y2="270.67"/>
      <line class="cls-2" x1="418.56" y1="270.67" x2="418.56" y2=".38"/>
      <line class="cls-2" x1="358.14" y1="270.67" x2="358.14" y2=".38"/>
      <line class="cls-2" x1="267.69" y1="270.67" x2="267.69" y2=".38"/>
      <line class="cls-2" x1="569.42" y1="270.67" x2="569.42" y2=".38"/>
      <line class="cls-2" x1="151.24" y1="270.67" x2="151.24" y2=".38"/>
      <line class="cls-2" x1="60.79" y1="270.67" x2="60.79" y2=".38"/>
      <line class="cls-2" x1="478.97" y1="270.67" x2="478.97" y2=".38"/>
      <line class="cls-2" x1="750.66" y1="270.67" x2="750.66" y2=".38"/>
      <line class="cls-2" x1="841.11" y1="270.67" x2="841.11" y2=".38"/>
      <line class="cls-2" x1=".38" y1="270.67" x2=".38" y2=".38"/>
      <line class="cls-2" x1="207.27" y1="270.67" x2="207.27" y2=".38"/>
      <line class="cls-2" x1="629.83" y1="270.67" x2="629.83" y2=".38"/>
      <line class="cls-2" x1="690.25" y1="270.67" x2="690.25" y2=".38"/>
      <line class="cls-2" x1="901.53" y1="270.67" x2="901.53" y2=".38"/>
    </g>
  </g>
</svg>